<?xml version="1.0" standalone="no"?>
<!DOCTYPE svg PUBLIC "-//W3C//DTD SVG 20010904//EN"
 "http://www.w3.org/TR/2001/REC-SVG-20010904/DTD/svg10.dtd">
<svg version="1.0" xmlns="http://www.w3.org/2000/svg"
 width="650.000000pt" height="734.000000pt" viewBox="0 0 650.000000 734.000000"
 preserveAspectRatio="xMidYMid meet">

<g transform="translate(0.000000,734.000000) scale(0.100000,-0.100000)"
fill="#000000" stroke="none">
<path d="M2783 6985 c-155 -42 -269 -148 -325 -303 -22 -61 -31 -228 -15 -286
10 -34 19 -26 36 32 6 23 16 42 21 42 19 0 23 -112 6 -189 -9 -42 -16 -95 -16
-117 0 -148 147 -402 265 -455 56 -26 116 -24 174 6 52 26 178 123 225 174 37
38 52 40 29 4 -57 -92 -159 -184 -250 -225 l-42 -18 15 -35 c8 -19 14 -52 14
-73 0 -59 -56 -105 -231 -190 -183 -89 -194 -101 -193 -195 1 -67 22 -164 43
-196 8 -12 15 -10 43 11 45 35 135 123 186 182 23 27 44 47 46 45 12 -12 -115
-195 -211 -305 -85 -97 -106 -187 -79 -325 30 -150 61 -229 139 -354 105 -167
136 -265 136 -430 1 -96 -17 -237 -37 -300 -38 -118 -46 -192 -46 -415 1 -262
22 -407 96 -655 16 -55 35 -117 41 -137 6 -21 9 -40 6 -43 -13 -12 -515 -133
-789 -189 -302 -61 -654 -124 -800 -142 -30 -3 -62 -10 -70 -15 -20 -11 22
-11 320 1 1512 63 2548 304 3214 747 101 67 161 117 262 218 71 71 148 157
170 190 46 70 124 220 124 240 0 8 7 35 16 61 8 25 13 48 10 51 -3 3 -44 -31
-92 -76 -292 -276 -731 -526 -1339 -761 -86 -34 -169 -63 -185 -67 l-29 -5 29
78 c16 44 38 104 50 134 45 117 52 137 71 200 46 155 8 330 -100 468 -66 83
-71 85 -171 56 -149 -44 -300 -64 -476 -65 -100 -1 -182 4 -220 12 -59 13 -58
14 126 20 216 8 367 32 525 84 146 47 142 45 123 92 -24 59 -35 99 -60 213
-20 94 -22 133 -23 365 0 229 3 275 24 390 24 134 40 186 41 130 0 -68 55
-307 100 -445 27 -81 78 -194 124 -278 57 -101 151 -182 211 -182 57 0 149 67
218 159 52 70 76 117 110 221 21 64 53 149 112 300 56 143 98 250 110 275 7
17 34 82 59 145 26 63 52 125 58 137 6 12 8 28 5 36 -7 18 -157 98 -169 91 -9
-6 -45 -61 -77 -117 -10 -18 -47 -84 -83 -147 -36 -63 -82 -146 -103 -185 -21
-38 -46 -83 -55 -100 -10 -16 -50 -93 -90 -170 -40 -77 -78 -146 -85 -153 -10
-11 -14 8 -19 100 -10 149 -54 418 -122 742 -8 38 -14 82 -14 98 0 16 -9 46
-20 68 -34 67 -87 95 -281 151 -159 45 -203 65 -257 114 -59 53 -76 114 -69
244 11 167 26 221 82 283 97 108 135 214 135 381 0 138 -20 220 -76 313 -19
31 -32 59 -29 62 10 11 58 -13 77 -38 51 -69 68 -264 48 -550 -16 -222 -10
-258 50 -314 29 -26 43 -52 59 -105 12 -39 26 -71 31 -71 22 0 62 81 70 142
25 192 33 250 46 321 8 42 14 93 14 112 0 20 7 61 15 93 97 381 38 545 -208
584 -94 14 -184 0 -272 -42 l-60 -29 -60 30 c-114 55 -296 75 -412 44z"/>
<path d="M4693 5726 c-90 -29 -165 -96 -202 -181 -16 -36 -21 -68 -21 -130 0
-71 4 -90 30 -143 36 -71 83 -115 159 -150 73 -33 184 -35 253 -4 62 27 134
95 166 157 23 44 27 62 26 140 0 70 -5 100 -22 137 -27 61 -93 127 -157 157
-61 29 -170 37 -232 17z m188 -187 c33 -23 62 -72 57 -96 -2 -10 -11 -3 -28
23 -28 44 -89 71 -132 61 -106 -27 -132 -176 -40 -230 28 -16 32 -23 19 -25
-27 -5 -78 29 -98 68 -44 81 -6 183 81 219 35 15 106 5 141 -20z"/>
<path d="M2596 4077 c4 -72 3 -110 -5 -125 -14 -27 -72 -56 -401 -205 -300
-135 -537 -248 -565 -270 -14 -11 -17 -18 -8 -28 5 -8 18 -38 28 -67 9 -29 23
-56 31 -59 17 -6 393 82 656 153 259 71 358 107 394 145 27 29 29 35 28 112
-1 64 -8 102 -34 177 -32 93 -115 270 -126 270 -3 0 -2 -46 2 -103z"/>
<path d="M1204 3559 c-68 -26 -138 -89 -172 -153 -23 -45 -27 -62 -27 -146 0
-111 19 -161 87 -229 62 -61 119 -85 210 -89 112 -6 167 15 243 92 70 71 95
130 95 223 0 227 -226 383 -436 302z m204 -176 c28 -20 74 -102 65 -116 -3 -5
-13 7 -22 25 -37 68 -109 94 -174 63 -46 -23 -69 -59 -69 -110 0 -50 21 -83
67 -111 25 -15 27 -19 12 -22 -23 -5 -81 34 -101 69 -23 39 -21 114 5 156 43
70 153 93 217 46z"/>
<path d="M5532 2757 c-106 -66 -374 -203 -537 -272 -570 -244 -1247 -427
-2010 -544 -109 -17 -362 -48 -415 -52 -8 -1 -4 -5 10 -9 62 -20 710 -7 1000
21 966 90 1689 391 2007 836 25 35 43 67 41 71 -1 4 -45 -18 -96 -51z"/>
<path d="M744 1731 c-53 -23 -69 -90 -35 -145 14 -22 37 -134 79 -382 33 -193
65 -361 71 -373 15 -28 42 -24 58 9 6 14 26 108 43 210 18 102 36 189 40 194
11 11 14 -3 50 -204 35 -192 46 -225 75 -225 27 0 37 39 101 425 31 185 64
356 75 382 33 81 2 128 -75 114 -57 -11 -74 -70 -35 -120 20 -26 20 -27 4
-134 -16 -105 -28 -143 -39 -131 -14 14 -47 214 -42 248 4 20 9 50 12 67 8 40
-13 61 -69 69 -109 17 -167 -36 -124 -112 18 -32 21 -54 21 -138 -1 -102 -18
-174 -34 -145 -19 35 -42 222 -35 288 8 85 -2 101 -70 107 -27 3 -60 1 -71 -4z"/>
<path d="M3604 1703 c-44 -103 -54 -257 -20 -291 21 -22 32 -10 61 69 43 121
55 89 54 -146 -1 -266 -9 -350 -36 -375 -53 -49 -15 -131 65 -145 131 -22 203
60 137 155 l-25 37 2 268 c3 298 10 326 50 203 18 -58 27 -73 43 -73 11 0 25
11 33 25 26 49 -5 268 -42 299 -11 9 -20 9 -35 2 -25 -14 -228 -14 -236 -1
-13 21 -37 9 -51 -27z"/>
<path d="M2053 1699 c-60 -30 -103 -81 -103 -124 0 -24 6 -37 20 -45 19 -10
20 -21 20 -275 0 -238 -2 -269 -19 -314 -16 -39 -18 -56 -10 -84 9 -32 14 -36
53 -42 58 -9 104 2 117 27 6 12 8 41 5 72 -16 129 -17 156 -9 156 4 0 19 -30
32 -67 13 -38 33 -92 43 -120 l19 -53 64 0 c55 0 66 3 79 22 24 34 19 76 -14
127 -16 26 -48 102 -70 169 -46 138 -46 141 23 205 25 24 29 33 24 64 -8 46
-24 62 -70 70 -26 4 -44 0 -63 -12 -24 -16 -26 -21 -21 -69 5 -54 -14 -106
-40 -106 -10 0 -13 48 -15 207 -2 126 -7 208 -13 210 -5 1 -29 -6 -52 -18z"/>
<path d="M5043 1699 c-60 -30 -103 -81 -103 -124 0 -24 6 -37 20 -45 19 -10
20 -21 20 -275 0 -238 -2 -269 -19 -314 -16 -39 -18 -56 -10 -84 9 -32 14 -36
53 -42 58 -9 104 2 117 27 6 12 8 41 5 72 -16 129 -17 156 -9 156 4 0 19 -30
32 -67 13 -38 33 -92 43 -120 l19 -53 64 0 c55 0 66 3 79 22 24 34 19 76 -14
127 -16 26 -48 102 -70 169 -46 138 -46 141 23 205 25 24 29 33 24 64 -8 46
-24 62 -70 70 -26 4 -44 0 -63 -12 -24 -16 -26 -21 -21 -69 5 -54 -14 -106
-40 -106 -10 0 -13 48 -15 207 -2 126 -7 208 -13 210 -5 1 -29 -6 -52 -18z"/>
<path d="M3201 1549 c-62 -88 -71 -106 -71 -145 0 -40 2 -44 24 -44 l24 0 4
-217 c3 -198 5 -222 25 -265 43 -94 122 -89 173 13 31 60 23 164 -10 124 -41
-50 -62 18 -58 197 l3 133 40 5 40 5 0 65 0 65 -40 5 -40 5 -3 78 c-4 109 -20
105 -111 -24z"/>
<path d="M1423 1475 c-123 -53 -174 -383 -88 -572 77 -169 240 -86 285 145 28
139 -11 336 -80 404 -41 41 -65 46 -117 23z m55 -201 c16 -65 26 -275 14 -293
-18 -25 -40 -3 -51 50 -19 86 -26 252 -12 278 18 33 34 21 49 -35z"/>
<path d="M1732 1469 c-81 -40 -100 -91 -61 -164 19 -37 20 -50 13 -180 -4 -87
-12 -150 -20 -167 -21 -41 -18 -101 7 -124 16 -15 36 -19 86 -19 56 0 68 4 84
24 27 33 25 94 -3 121 -21 19 -23 31 -26 152 -2 73 0 134 6 140 6 6 17 -4 30
-26 47 -80 102 -12 102 126 0 76 -24 138 -53 138 -19 0 -45 -30 -58 -68 -16
-45 -27 -40 -31 15 -4 57 -15 62 -76 32z"/>
<path d="M2513 1475 c-123 -53 -174 -383 -88 -572 77 -169 240 -86 285 145 28
139 -11 336 -80 404 -41 41 -65 46 -117 23z m55 -201 c16 -65 26 -275 14 -293
-18 -25 -40 -3 -51 50 -19 86 -26 252 -12 278 18 33 34 21 49 -35z"/>
<path d="M2810 1475 c-25 -8 -50 -22 -57 -32 -18 -24 -16 -69 4 -100 15 -23
19 -60 23 -232 5 -158 10 -215 22 -243 29 -66 88 -75 128 -18 24 34 40 39 40
11 0 -55 27 -63 97 -32 61 28 81 81 48 125 -12 16 -15 64 -15 261 0 273 -2
281 -62 270 -20 -4 -50 -15 -67 -26 -26 -16 -31 -25 -31 -56 1 -21 7 -49 15
-63 17 -30 21 -303 5 -344 -10 -28 -34 -34 -47 -13 -4 6 -10 122 -13 257 -6
278 0 263 -90 235z"/>
<path d="M4052 1469 c-81 -40 -100 -91 -61 -164 19 -37 20 -50 13 -180 -4 -87
-12 -150 -20 -167 -21 -41 -18 -101 7 -124 16 -15 36 -19 86 -19 56 0 68 4 84
24 27 33 25 94 -3 121 -21 19 -23 31 -26 152 -2 73 0 134 6 140 6 6 17 -4 30
-26 47 -80 102 -12 102 126 0 76 -24 138 -53 138 -19 0 -45 -30 -58 -68 -16
-45 -27 -40 -31 15 -4 57 -15 62 -76 32z"/>
<path d="M4405 1471 c-40 -24 -71 -60 -84 -94 -16 -42 -14 -112 4 -127 22 -18
39 0 64 70 22 59 43 76 55 44 3 -9 6 -48 6 -89 l0 -72 -38 -7 c-98 -15 -149
-161 -107 -304 26 -87 76 -105 131 -46 l34 35 9 -23 c13 -33 37 -51 60 -43 47
15 91 147 59 179 -12 12 -16 52 -20 193 -3 161 -6 183 -27 226 -35 72 -89 94
-146 58z m50 -392 c8 -37 -2 -116 -16 -125 -20 -12 -32 15 -31 71 1 78 34 116
47 54z"/>
<path d="M4743 1471 c-48 -30 -91 -128 -105 -238 -28 -223 54 -437 160 -419
41 6 68 28 93 78 20 40 25 123 9 148 -8 13 -12 12 -25 -7 -24 -34 -61 -30 -85
9 -50 82 -47 288 5 288 14 0 35 -57 35 -96 0 -12 8 -32 18 -44 38 -47 78 14
76 116 -3 134 -95 219 -181 165z"/>
<path d="M5485 1481 c-54 -23 -102 -126 -118 -250 -26 -213 47 -421 150 -421
72 0 150 123 123 194 l-10 28 -30 -32 c-38 -41 -69 -38 -93 11 -9 20 -18 54
-20 75 l-2 39 79 5 c78 5 80 6 88 35 12 41 2 149 -19 208 -32 88 -92 132 -148
108z m55 -121 c6 -12 10 -42 8 -68 -3 -45 -4 -47 -33 -47 -26 0 -30 4 -33 30
-5 40 16 105 33 105 8 0 19 -9 25 -20z"/>
<path d="M5762 1469 c-81 -40 -100 -91 -61 -164 19 -37 20 -50 13 -180 -4 -87
-12 -150 -20 -167 -21 -41 -18 -101 7 -124 16 -15 36 -19 86 -19 56 0 68 4 84
24 27 33 25 94 -3 121 -21 19 -23 31 -26 152 -2 73 0 134 6 140 6 6 17 -4 30
-26 47 -80 102 -12 102 126 0 76 -24 138 -53 138 -19 0 -45 -30 -58 -68 -16
-45 -27 -40 -31 15 -4 57 -15 62 -76 32z"/>
</g>
</svg>
